<svg id="Layer_1" data-name="Layer 1" xmlns="http://www.w3.org/2000/svg" viewBox="0 0 503.79 503.79"><defs><style>.cls-1,.cls-2{fill:#fff;}.cls-1{stroke:#fff;stroke-miterlimit:10;stroke-width:40px;}</style></defs><title>menu</title><polygon class="cls-1" points="483.79 253.25 483.78 254.7 483.75 256.16 483.72 257.62 483.68 259.07 483.63 260.53 483.57 261.99 483.51 263.44 483.43 264.89 483.34 266.35 483.25 267.8 483.14 269.26 483.03 270.71 482.91 272.16 482.77 273.61 482.63 275.06 482.48 276.51 482.32 277.96 482.16 279.41 481.98 280.85 481.79 282.3 481.6 283.74 481.39 285.19 481.18 286.63 480.95 288.07 480.72 289.5 480.48 290.94 480.23 292.38 479.97 293.81 479.71 295.24 479.43 296.67 479.14 298.1 478.85 299.53 478.55 300.95 478.23 302.38 477.91 303.8 477.58 305.22 477.24 306.63 476.89 308.05 476.54 309.46 476.17 310.87 475.79 312.28 475.41 313.69 475.02 315.09 474.62 316.49 474.2 317.89 473.79 319.28 473.36 320.68 472.92 322.07 472.48 323.45 472.02 324.84 471.56 326.22 471.09 327.6 470.61 328.98 470.12 330.35 469.62 331.72 469.12 333.08 468.6 334.45 468.08 335.81 467.55 337.16 467.01 338.52 466.46 339.87 465.9 341.21 465.34 342.56 464.76 343.89 464.18 345.23 463.59 346.56 462.99 347.89 462.38 349.21 461.77 350.54 461.14 351.85 460.51 353.17 459.87 354.47 459.22 355.78 458.57 357.08 457.9 358.38 457.23 359.67 456.55 360.96 455.86 362.24 455.16 363.52 454.46 364.79 453.74 366.06 453.02 367.33 452.29 368.59 451.56 369.85 450.81 371.1 450.06 372.35 449.3 373.59 448.53 374.83 447.75 376.06 446.97 377.29 446.18 378.51 445.38 379.73 444.57 380.94 443.75 382.15 442.93 383.36 442.1 384.55 441.26 385.75 440.42 386.93 439.57 388.12 438.71 389.29 437.84 390.46 436.97 391.63 436.09 392.79 435.2 393.94 434.3 395.09 433.4 396.24 432.49 397.37 431.57 398.5 430.64 399.63 429.71 400.75 428.77 401.86 427.83 402.97 426.88 404.07 425.92 405.17 424.95 406.26 423.98 407.35 423 408.42 422.01 409.5 421.02 410.56 420.02 411.62 419.01 412.68 418 413.72 416.98 414.76 415.95 415.8 414.92 416.82 413.88 417.85 412.83 418.86 411.78 419.87 410.72 420.87 409.65 421.86 408.58 422.85 407.51 423.83 406.42 424.81 405.33 425.77 404.24 426.73 403.14 427.69 402.03 428.63 400.92 429.57 399.8 430.51 398.67 431.43 397.54 432.35 396.4 433.26 395.26 434.17 394.11 435.06 392.96 435.95 391.8 436.84 390.63 437.71 389.46 438.58 388.29 439.44 387.11 440.3 385.92 441.14 384.73 441.98 383.53 442.81 382.33 443.63 381.12 444.45 379.91 445.26 378.69 446.06 377.47 446.85 376.24 447.64 375.01 448.41 373.77 449.18 372.53 449.94 371.29 450.7 370.03 451.44 368.78 452.18 367.52 452.91 366.25 453.64 364.98 454.35 363.71 455.06 362.43 455.76 361.15 456.45 359.86 457.13 358.57 457.8 357.27 458.47 355.97 459.13 354.67 459.78 353.36 460.42 352.05 461.05 350.73 461.68 349.41 462.29 348.09 462.9 346.76 463.5 345.43 464.09 344.09 464.68 342.75 465.25 341.41 465.82 340.07 466.38 338.72 466.93 337.36 467.47 336.01 468 334.65 468.53 333.29 469.04 331.92 469.55 330.55 470.05 329.18 470.54 327.8 471.02 326.42 471.49 325.04 471.95 323.66 472.41 322.27 472.86 320.88 473.29 319.49 473.72 318.1 474.14 316.7 474.56 315.3 474.96 313.89 475.35 312.49 475.74 311.08 476.11 309.67 476.48 308.26 476.84 306.85 477.19 305.43 477.53 304.01 477.86 302.59 478.19 301.17 478.5 299.74 478.8 298.31 479.1 296.89 479.39 295.46 479.67 294.02 479.94 292.59 480.19 291.15 480.45 289.72 480.69 288.28 480.92 286.84 481.14 285.4 481.36 283.96 481.57 282.51 481.76 281.07 481.95 279.62 482.13 278.18 482.3 276.73 482.46 275.28 482.61 273.83 482.75 272.38 482.89 270.93 483.01 269.47 483.13 268.02 483.23 266.56 483.33 265.11 483.42 263.66 483.5 262.2 483.56 260.75 483.62 259.29 483.68 257.83 483.72 256.38 483.75 254.92 483.77 253.46 483.79 252 483.79 250.55 483.79 249.09 483.78 247.63 483.75 246.18 483.72 244.72 483.68 243.26 483.63 241.81 483.57 240.35 483.51 238.9 483.43 237.44 483.34 235.99 483.25 234.54 483.14 233.08 483.03 231.63 482.91 230.18 482.77 228.73 482.63 227.28 482.48 225.83 482.32 224.38 482.16 222.94 481.98 221.49 481.79 220.05 481.6 218.61 481.39 217.17 481.18 215.73 480.95 214.29 480.72 212.85 480.48 211.42 480.23 209.98 479.97 208.55 479.71 207.12 479.43 205.69 479.14 204.26 478.85 202.84 478.55 201.41 478.23 199.99 477.91 198.57 477.58 197.16 477.24 195.74 476.89 194.33 476.54 192.92 476.17 191.51 475.79 190.11 475.41 188.7 475.02 187.3 474.62 185.91 474.2 184.51 473.79 183.12 473.36 181.73 472.92 180.34 472.48 178.96 472.02 177.57 471.56 176.19 471.09 174.82 470.61 173.45 470.12 172.08 469.62 170.71 469.12 169.35 468.6 167.99 468.08 166.63 467.55 165.28 467.01 163.93 466.46 162.58 465.9 161.24 465.34 159.9 464.76 158.56 464.18 157.23 463.59 155.9 462.99 154.58 462.38 153.26 461.77 151.94 461.14 150.63 460.51 149.32 459.87 148.01 459.22 146.71 458.57 145.42 457.9 144.13 457.23 142.84 456.55 141.55 455.86 140.27 455.16 139 454.46 137.73 453.74 136.46 453.02 135.2 452.29 133.94 451.56 132.69 450.81 131.44 450.06 130.2 449.3 128.96 448.53 127.73 447.75 126.5 446.97 125.28 446.18 124.06 445.38 122.85 444.57 121.64 443.75 120.44 442.93 119.24 442.1 118.05 441.26 116.86 440.42 115.68 439.57 114.5 438.71 113.33 437.84 112.17 436.97 111 436.09 109.85 435.2 108.7 434.3 107.56 433.4 106.42 432.49 105.29 431.57 104.16 430.64 103.04 429.71 101.93 428.77 100.82 427.83 99.72 426.88 98.62 425.92 97.53 424.95 96.45 423.98 95.37 423 94.3 422.01 93.23 421.02 92.17 420.02 91.12 419.01 90.07 418 89.03 416.98 88 415.95 86.97 414.92 85.95 413.88 84.93 412.83 83.93 411.78 82.92 410.72 81.93 409.65 80.94 408.58 79.96 407.51 78.99 406.42 78.02 405.33 77.06 404.24 76.11 403.14 75.16 402.03 74.22 400.92 73.29 399.8 72.36 398.67 71.44 397.54 70.53 396.4 69.63 395.26 68.73 394.11 67.84 392.96 66.96 391.8 66.08 390.63 65.21 389.46 64.35 388.29 63.5 387.11 62.65 385.92 61.81 384.73 60.98 383.53 60.16 382.33 59.34 381.12 58.54 379.91 57.74 378.69 56.94 377.47 56.16 376.24 55.38 375.01 54.61 373.77 53.85 372.53 53.09 371.29 52.35 370.03 51.61 368.78 50.88 367.52 50.16 366.25 49.44 364.98 48.74 363.71 48.04 362.43 47.35 361.15 46.66 359.86 45.99 358.57 45.32 357.27 44.67 355.97 44.02 354.67 43.38 353.36 42.74 352.05 42.12 350.73 41.5 349.41 40.89 348.09 40.29 346.76 39.7 345.43 39.12 344.09 38.54 342.75 37.97 341.41 37.41 340.07 36.87 338.72 36.32 337.36 35.79 336.01 35.27 334.65 34.75 333.29 34.24 331.92 33.75 330.55 33.26 329.18 32.77 327.8 32.3 326.42 31.84 325.04 31.38 323.66 30.94 322.27 30.5 320.88 30.07 319.49 29.65 318.1 29.24 316.7 28.84 315.3 28.44 313.89 28.06 312.49 27.68 311.08 27.31 309.67 26.95 308.26 26.6 306.85 26.26 305.43 25.93 304.01 25.61 302.59 25.29 301.17 24.99 299.74 24.69 298.31 24.41 296.89 24.13 295.46 23.86 294.02 23.6 292.59 23.35 291.15 23.11 289.72 22.87 288.28 22.65 286.84 22.43 285.4 22.23 283.96 22.03 282.51 21.84 281.07 21.66 279.62 21.49 278.18 21.33 276.73 21.18 275.28 21.04 273.83 20.91 272.38 20.78 270.93 20.67 269.47 20.56 268.02 20.46 266.56 20.38 265.11 20.3 263.66 20.23 262.2 20.17 260.75 20.12 259.29 20.08 257.83 20.04 256.38 20.02 254.92 20 253.46 20 252 20 250.55 20.02 249.09 20.04 247.63 20.07 246.18 20.11 244.72 20.16 243.26 20.22 241.81 20.29 240.35 20.36 238.9 20.45 237.44 20.55 235.99 20.65 234.54 20.76 233.08 20.89 231.63 21.02 230.18 21.16 228.73 21.31 227.28 21.47 225.83 21.64 224.38 21.82 222.94 22 221.49 22.2 220.05 22.4 218.61 22.62 217.17 22.84 215.73 23.07 214.29 23.31 212.85 23.56 211.42 23.82 209.98 24.09 208.55 24.36 207.12 24.65 205.69 24.95 204.26 25.25 202.84 25.56 201.41 25.88 199.99 26.21 198.57 26.55 197.16 26.9 195.74 27.26 194.33 27.63 192.92 28 191.51 28.38 190.11 28.78 188.7 29.18 187.3 29.59 185.91 30.01 184.51 30.43 183.12 30.87 181.73 31.32 180.34 31.77 178.96 32.23 177.57 32.7 176.19 33.19 174.82 33.67 173.45 34.17 172.08 34.68 170.71 35.19 169.35 35.71 167.99 36.24 166.63 36.78 165.28 37.33 163.93 37.89 162.58 38.46 161.24 39.03 159.9 39.61 158.56 40.2 157.23 40.8 155.9 41.41 154.58 42.02 153.26 42.65 151.94 43.28 150.63 43.92 149.32 44.57 148.01 45.23 146.71 45.89 145.42 46.56 144.13 47.25 142.84 47.94 141.55 48.63 140.27 49.34 139 50.05 137.73 50.77 136.46 51.5 135.2 52.24 133.94 52.98 132.69 53.74 131.44 54.5 130.2 55.27 128.96 56.04 127.73 56.83 126.5 57.62 125.28 58.42 124.06 59.22 122.85 60.04 121.64 60.86 120.44 61.69 119.24 62.53 118.05 63.37 116.86 64.22 115.68 65.08 114.5 65.95 113.33 66.83 112.17 67.71 111 68.6 109.85 69.49 108.7 70.4 107.56 71.31 106.42 72.22 105.29 73.15 104.16 74.08 103.04 75.02 101.93 75.97 100.82 76.92 99.72 77.88 98.62 78.84 97.53 79.82 96.45 80.8 95.37 81.78 94.3 82.78 93.23 83.78 92.17 84.78 91.12 85.8 90.07 86.82 89.03 87.84 88 88.88 86.97 89.92 85.95 90.96 84.93 92.02 83.93 93.07 82.92 94.14 81.93 95.21 80.94 96.29 79.96 97.37 78.99 98.46 78.02 99.56 77.06 100.66 76.11 101.76 75.16 102.88 74.22 104 73.29 105.12 72.36 106.25 71.44 107.39 70.53 108.53 69.63 109.68 68.73 110.83 67.84 111.99 66.96 113.16 66.08 114.33 65.21 115.5 64.35 116.69 63.5 117.87 62.65 119.06 61.81 120.26 60.98 121.46 60.16 122.67 59.34 123.88 58.54 125.1 57.74 126.32 56.94 127.55 56.16 128.78 55.38 130.02 54.61 131.26 53.85 132.51 53.09 133.76 52.35 135.01 51.61 136.28 50.88 137.54 50.16 138.81 49.44 140.09 48.74 141.36 48.04 142.65 47.35 143.93 46.66 145.23 45.99 146.52 45.32 147.82 44.67 149.13 44.02 150.43 43.38 151.75 42.74 153.06 42.12 154.38 41.5 155.71 40.89 157.03 40.29 158.37 39.7 159.7 39.12 161.04 38.54 162.38 37.97 163.73 37.41 165.08 36.87 166.43 36.32 167.79 35.79 169.15 35.27 170.51 34.75 171.87 34.24 173.24 33.75 174.62 33.26 175.99 32.77 177.37 32.3 178.75 31.84 180.13 31.38 181.52 30.94 182.91 30.5 184.3 30.07 185.7 29.65 187.1 29.24 188.5 28.84 189.9 28.44 191.3 28.06 192.71 27.68 194.12 27.31 195.53 26.95 196.95 26.6 198.37 26.26 199.78 25.93 201.21 25.61 202.63 25.29 204.05 24.99 205.48 24.69 206.91 24.41 208.34 24.13 209.77 23.86 211.2 23.6 212.64 23.35 214.07 23.11 215.51 22.87 216.95 22.65 218.39 22.43 219.84 22.23 221.28 22.03 222.72 21.84 224.17 21.66 225.62 21.49 227.07 21.33 228.52 21.18 229.97 21.04 231.42 20.91 232.87 20.78 234.32 20.67 235.77 20.56 237.23 20.46 238.68 20.38 240.14 20.3 241.59 20.23 243.05 20.17 244.5 20.12 245.96 20.08 247.42 20.04 248.88 20.02 250.33 20 251.79 20 253.25 20 254.7 20.02 256.16 20.04 257.62 20.07 259.07 20.11 260.53 20.16 261.99 20.22 263.44 20.29 264.89 20.36 266.35 20.45 267.8 20.55 269.26 20.65 270.71 20.76 272.16 20.89 273.61 21.02 275.06 21.16 276.51 21.31 277.96 21.47 279.41 21.64 280.85 21.82 282.3 22 283.74 22.2 285.19 22.4 286.63 22.62 288.07 22.84 289.5 23.07 290.94 23.31 292.38 23.56 293.81 23.82 295.24 24.09 296.67 24.36 298.1 24.65 299.53 24.95 300.95 25.25 302.38 25.56 303.8 25.88 305.22 26.21 306.63 26.55 308.05 26.9 309.46 27.26 310.87 27.63 312.28 28 313.69 28.38 315.09 28.78 316.49 29.18 317.89 29.59 319.28 30.01 320.68 30.43 322.07 30.87 323.45 31.32 324.84 31.77 326.22 32.23 327.6 32.7 328.98 33.19 330.35 33.67 331.72 34.17 333.08 34.68 334.45 35.19 335.81 35.71 337.16 36.24 338.52 36.78 339.87 37.33 341.21 37.89 342.56 38.46 343.89 39.03 345.23 39.61 346.56 40.2 347.89 40.8 349.21 41.41 350.54 42.02 351.85 42.65 353.17 43.28 354.47 43.92 355.78 44.57 357.08 45.23 358.38 45.89 359.67 46.56 360.96 47.25 362.24 47.94 363.52 48.63 364.79 49.34 366.06 50.05 367.33 50.77 368.59 51.5 369.85 52.24 371.1 52.98 372.35 53.74 373.59 54.5 374.83 55.27 376.06 56.04 377.29 56.83 378.51 57.62 379.73 58.42 380.94 59.22 382.15 60.04 383.36 60.86 384.55 61.69 385.75 62.53 386.93 63.37 388.12 64.22 389.29 65.08 390.46 65.95 391.63 66.83 392.79 67.71 393.94 68.6 395.09 69.49 396.24 70.4 397.37 71.31 398.5 72.22 399.63 73.15 400.75 74.08 401.86 75.02 402.97 75.97 404.07 76.92 405.17 77.88 406.26 78.84 407.35 79.82 408.42 80.8 409.5 81.78 410.56 82.78 411.62 83.78 412.68 84.78 413.72 85.8 414.76 86.82 415.8 87.84 416.82 88.88 417.85 89.92 418.86 90.96 419.87 92.02 420.87 93.07 421.86 94.14 422.85 95.21 423.83 96.29 424.81 97.37 425.77 98.46 426.73 99.56 427.69 100.66 428.63 101.76 429.57 102.88 430.51 104 431.43 105.12 432.35 106.25 433.26 107.39 434.17 108.53 435.06 109.68 435.95 110.83 436.84 111.99 437.71 113.16 438.58 114.33 439.44 115.5 440.3 116.69 441.14 117.87 441.98 119.06 442.81 120.26 443.63 121.46 444.45 122.67 445.26 123.88 446.06 125.1 446.85 126.32 447.64 127.55 448.41 128.78 449.18 130.02 449.94 131.26 450.7 132.51 451.44 133.76 452.18 135.01 452.91 136.28 453.64 137.54 454.35 138.81 455.06 140.09 455.76 141.36 456.45 142.65 457.13 143.93 457.8 145.23 458.47 146.52 459.13 147.82 459.78 149.13 460.42 150.43 461.05 151.75 461.68 153.06 462.29 154.38 462.9 155.71 463.5 157.03 464.09 158.37 464.68 159.7 465.25 161.04 465.82 162.38 466.38 163.73 466.93 165.08 467.47 166.43 468 167.79 468.53 169.15 469.04 170.51 469.55 171.87 470.05 173.24 470.54 174.62 471.02 175.99 471.49 177.37 471.95 178.75 472.41 180.13 472.86 181.52 473.29 182.91 473.72 184.3 474.14 185.7 474.56 187.1 474.96 188.5 475.35 189.9 475.74 191.3 476.11 192.71 476.48 194.12 476.84 195.53 477.19 196.95 477.53 198.37 477.86 199.78 478.19 201.21 478.5 202.63 478.8 204.05 479.1 205.48 479.39 206.91 479.67 208.34 479.94 209.77 480.19 211.2 480.45 212.64 480.69 214.07 480.92 215.51 481.14 216.95 481.36 218.39 481.57 219.84 481.76 221.28 481.95 222.72 482.13 224.17 482.3 225.62 482.46 227.07 482.61 228.52 482.75 229.97 482.89 231.42 483.01 232.87 483.13 234.32 483.23 235.77 483.33 237.23 483.42 238.68 483.5 240.14 483.56 241.59 483.62 243.05 483.68 244.5 483.72 245.96 483.75 247.42 483.77 248.88 483.79 250.33 483.79 251.79 483.79 253.25"/><path class="cls-2" d="M119.65,196.78h279.8c13.08,0,25.61-11.5,25-25s-11-25-25-25H119.65c-13.08,0-25.61,11.49-25,25s11,25,25,25Z" transform="translate(-4.52 -3.88)"/><path class="cls-2" d="M119.65,287.13h279.8c13.08,0,25.61-11.5,25-25s-11-25-25-25H119.65c-13.08,0-25.61,11.5-25,25s11,25,25,25Z" transform="translate(-4.52 -3.88)"/><path class="cls-2" d="M114.48,371.39h279.8c13.08,0,25.61-11.49,25-25s-11-25-25-25H114.48c-13.08,0-25.61,11.5-25,25s11,25,25,25Z" transform="translate(-4.52 -3.88)"/></svg>